# xmcd
#
# Track frame offsets:
#	150
#	15831
#	30480
#	44492
#	55808
#	70901
#	83830
#	99618
#	118179
#	134925
#	151277
#	170637
#	185264
#	196967
#	199393
#	201735
#	204078
#	206394
#	208732
#	211070
#	213451
#	215770
#	218090
#	220418
#	222741
#	225072
#	227439
#	229810
#	232163
#	234462
#
# Disc length: 3324 seconds
#
# Revision: 7
# Processed by: cddbd v1.5.2PL0 Copyright (c) Steve Scherf et al.
# Submitted via: EasyCDDAExtractor 15.3.0.1
#
DISCID=cc0cfa1e
DTITLE=Alejandro Fernandez - Origenes
DYEAR=2001
DGENRE=Latin
TTITLE0=Tantita Pena
TTITLE1=Si Tu No Vuelves
TTITLE2=Amor De Luna
TTITLE3=¡Ay Amor!
TTITLE4=Como Pez En El Agua
TTITLE5=Donde Vas Tan Sola
TTITLE6=Duerme Tranquila
TTITLE7=Tu Desvario
TTITLE8=Jamas Te Vi Tan Linda
TTITLE9=Pajaro Perdido
TTITLE10=El Monstruo
TTITLE11=Ingrato Amor
TTITLE12=Tu Regresaras
TTITLE13=Untitled Hidden Track 1
TTITLE14=Untitled Hidden Track 2
TTITLE15=Untitled Hidden Track 3
TTITLE16=Untitled Hidden Track 4
TTITLE17=Untitled Hidden Track 5
TTITLE18=Untitled Hidden Track 6
TTITLE19=Untitled Hidden Track 7
TTITLE20=Untitled Hidden Track 8
TTITLE21=Untitled Hidden Track 9
TTITLE22=Untitled Hidden Track 10
TTITLE23=Untitled Hidden Track 11
TTITLE24=Untitled Hidden Track 12
TTITLE25=Untitled Hidden Track 13
TTITLE26=Untitled Hidden Track 14
TTITLE27=Untitled Hidden Track 15
TTITLE28=Untitled Hidden Track 16
TTITLE29=Las Mañanitas (Hidden Track)
EXTD=YEAR: 2001 ID3G:  80
EXTT0=
EXTT1=
EXTT2=
EXTT3=
EXTT4=
EXTT5=
EXTT6=
EXTT7=
EXTT8=
EXTT9=
EXTT10=
EXTT11=
EXTT12=
EXTT13=
EXTT14=
EXTT15=
EXTT16=
EXTT17=
EXTT18=
EXTT19=
EXTT20=
EXTT21=
EXTT22=
EXTT23=
EXTT24=
EXTT25=
EXTT26=
EXTT27=
EXTT28=
EXTT29=
PLAYORDER=
